<svg xmlns="http://www.w3.org/2000/svg" width="641.257" height="425" viewBox="0 0 641.257 425">
  <defs>
    <style>
      .cls-1 {
        fill: #ccc;
      }

      .cls-2 {
        fill: #e6e6e6;
      }

      .cls-3 {
        fill: #fff;
      }

      .cls-4 {
        fill: #3f3d56;
      }

      .cls-5 {
        fill: #2f2e41;
      }

      .cls-6 {
        fill: #ff9399;
      }

      .cls-7 {
        fill: #f7baa1;
      }

      .cls-8 {
        fill: #6c63ff;
      }

      .cls-9 {
        opacity: 0.2;
      }

      .cls-10 {
        fill: #fbb74c;
      }
    </style>
  </defs>
  <g id="Group_13" data-name="Group 13" transform="translate(2.936 0)">
    <path id="Path_78" data-name="Path 78" class="cls-1" d="M789.251,714.965H249.119c-10,0-18.111-8.58-18.111-19.164h0q293.7-36.119,576.353,0h0C807.361,706.385,799.253,714.965,789.251,714.965Z" transform="translate(-180.588 -289.965)"/>
    <path id="Path_79" data-name="Path 79" class="cls-2" d="M807.359,580.855l-576.351-1.128,66.8-118.932.32-.564V198.118c0-13.382,10.252-24.228,22.9-24.226H714.154c12.647,0,22.9,10.848,22.894,24.228V462.035Z" transform="translate(-180.587 -173.893)"/>
    <path id="Path_80" data-name="Path 80" class="cls-3" d="M351.252,195.864a7.692,7.692,0,0,0-7.457,7.891V442.748a7.693,7.693,0,0,0,7.457,7.891H748.627a7.693,7.693,0,0,0,7.457-7.891V203.755a7.692,7.692,0,0,0-7.457-7.891Z" transform="translate(-211.342 -178.954)"/>
    <path id="Path_81" data-name="Path 81" class="cls-1" d="M348.724,567.913a3.2,3.2,0,0,0-2.9,1.968l-20.582,47.348a3.553,3.553,0,0,0,.212,3.238,3.157,3.157,0,0,0,2.691,1.558H760.976a3.161,3.161,0,0,0,2.719-1.6,3.554,3.554,0,0,0,.139-3.291l-22.372-47.347a3.167,3.167,0,0,0-2.858-1.869Z" transform="translate(-206.202 -264.664)"/>
    <ellipse id="Ellipse_26" data-name="Ellipse 26" class="cls-3" cx="4.794" cy="5.073" rx="4.794" ry="5.073" transform="translate(332.205 2.818)"/>
    <path id="Path_82" data-name="Path 82" class="cls-1" d="M563.4,649.94a3.236,3.236,0,0,0-3.086,2.5l-5.163,20.292a3.539,3.539,0,0,0,.549,2.937A3.138,3.138,0,0,0,558.237,677h98.186a3.146,3.146,0,0,0,2.6-1.421,3.546,3.546,0,0,0,.416-3.068l-6.637-20.292a3.216,3.216,0,0,0-3.02-2.276Z" transform="translate(-268.945 -283.561)"/>
    <path id="Path_83" data-name="Path 83" class="cls-1" d="M601.412,366.922v4.51H162.169l.33-.564v-3.946Z" transform="translate(-44.951 -84.529)"/>
    <path id="Path_84" data-name="Path 84" class="cls-1" d="M851.464,554.237a.788.788,0,0,0-.751.609l-1.257,4.941a.862.862,0,0,0,.134.715.764.764,0,0,0,.618.323h23.91a.766.766,0,0,0,.634-.346.863.863,0,0,0,.1-.747l-1.616-4.941a.783.783,0,0,0-.735-.554Z" transform="translate(-349.219 -261.513)"/>
    <path id="Path_85" data-name="Path 85" class="cls-1" d="M803.464,554.237a.788.788,0,0,0-.751.609l-1.257,4.941a.862.862,0,0,0,.134.715.764.764,0,0,0,.618.323h23.91a.766.766,0,0,0,.634-.346.863.863,0,0,0,.1-.747l-1.616-4.941a.783.783,0,0,0-.735-.554Z" transform="translate(-336.13 -261.513)"/>
    <path id="Path_86" data-name="Path 86" class="cls-4" d="M645.958,515.695h1.874l-3.748-265.051H642.21l.075,5.288h-42l.075-5.288h-1.874l-3.748,265.051h1.874l.243-17.185h48.86Zm-2.7-191.022H599.313l.458-32.388H642.8Zm.028,1.983.458,32.388H598.826l.458-32.388Zm.486,34.371.458,32.388H598.34l.458-32.388Zm.486,34.371.458,32.388h-46.86l.458-32.388Zm.486,34.371.458,32.388H597.368l.458-32.388Zm-2.43-171.853.458,32.388H599.8l.458-32.388ZM596.883,496.526l.458-32.388h47.888l.458,32.388Z" transform="translate(-279.77 -191.574)"/>
    <ellipse id="Ellipse_27" data-name="Ellipse 27" class="cls-5" cx="30.556" cy="32.334" rx="30.556" ry="32.334" transform="translate(301.675 85.695)"/>
    <path id="Path_102" data-name="Path 102" class="cls-5" d="M.011.006l9.3-.095L9.141,17.48l-9.3.095Z" transform="translate(341.06 142.122) rotate(-10.261)"/>
    <path id="Path_103" data-name="Path 103" class="cls-5" d="M.011.006l9.3-.095L9.141,17.48l-9.3.095Z" transform="translate(322.792 145.621) rotate(-10.261)"/>
    <path id="Path_104" data-name="Path 104" class="cls-5" d="M7.929-.208C12.3-.33,15.815.913,15.769,2.569s-3.631,3.1-8.007,3.221S-.124,4.67-.078,3.013,3.552-.085,7.929-.208Z" transform="matrix(0.763, -0.646, 0.646, 0.763, 320.949, 167.184)"/>
    <path id="Path_105" data-name="Path 105" class="cls-5" d="M7.929-.208C12.3-.33,15.815.913,15.769,2.569s-3.631,3.1-8.007,3.221S-.124,4.67-.078,3.013,3.553-.085,7.929-.208Z" transform="matrix(0.763, -0.646, 0.646, 0.763, 338.837, 163.758)"/>
    <ellipse id="Ellipse_30" data-name="Ellipse 30" class="cls-3" cx="10.443" cy="11.051" rx="10.443" ry="11.051" transform="translate(319.649 99.068)"/>
    <ellipse id="Ellipse_31" data-name="Ellipse 31" class="cls-4" cx="3.481" cy="3.684" rx="3.481" ry="3.684" transform="translate(322.32 102.474)"/>
    <path id="Path_87" data-name="Path 87" class="cls-6" d="M634.657,274.76c.459-11.971-9.29-22.11-21.776-22.646s-22.981,8.732-23.441,20.7,8.22,14.69,20.706,15.227S634.2,286.73,634.657,274.76Z" transform="translate(-278.32 -191.907)"/>
    <path id="Path_106" data-name="Path 106" class="cls-5" d="M5.074-.057c2.8-.034,4.975,6.8,4.868,15.262s-2.46,15.35-5.255,15.383-4.975-6.8-4.868-15.262S2.279-.024,5.074-.057Z" transform="matrix(0.223, -0.975, 0.975, 0.223, 288.046, 113.484)"/>
    <path id="Path_107" data-name="Path 107" class="cls-5" d="M5.074-.057c2.8-.034,4.975,6.8,4.868,15.262s-2.46,15.35-5.255,15.383-4.975-6.8-4.868-15.262S2.279-.024,5.074-.057Z" transform="matrix(0.223, -0.975, 0.975, 0.223, 348.027, 124.04)"/>
    <path id="Path_88" data-name="Path 88" class="cls-3" d="M624.839,342.657a7.347,7.347,0,0,1-5.6,8.568,7,7,0,0,1-8.1-5.929l0-.014c-.685-4,2.24-5.42,6.024-6.145S624.153,338.654,624.839,342.657Z" transform="translate(-284.214 -211.886)"/>
    <path id="Path_108" data-name="Path 108" class="cls-5" d="M16.463-.285c9.089-.168,16.414,1.914,16.361,4.649S25.361,9.454,16.272,9.622-.142,7.708-.09,4.972,7.374-.117,16.463-.285Z" transform="matrix(0.357, -0.934, 0.934, 0.357, 213.941, 239.612)"/>
    <path id="Path_109" data-name="Path 109" class="cls-5" d="M33.118-.27C51.4-.429,66.088,13.487,65.929,30.812s-15.107,31.5-33.387,31.659S-.428,48.714-.269,31.388,14.838-.111,33.118-.27Z" transform="translate(159.236 278.441) rotate(-80.783)"/>
    <rect id="Rectangle_16" data-name="Rectangle 16" class="cls-5" width="9.516" height="18.041" transform="translate(180.92 277.031)"/>
    <rect id="Rectangle_17" data-name="Rectangle 17" class="cls-5" width="9.516" height="18.041" transform="translate(199.952 277.031)"/>
    <ellipse id="Ellipse_36" data-name="Ellipse 36" class="cls-5" cx="7.93" cy="3.147" rx="7.93" ry="3.147" transform="translate(180.92 292.136)"/>
    <ellipse id="Ellipse_37" data-name="Ellipse 37" class="cls-5" cx="7.93" cy="3.147" rx="7.93" ry="3.147" transform="translate(199.952 291.717)"/>
    <path id="Path_89" data-name="Path 89" class="cls-6" d="M388.108,451.7c-2.529-11.986,5.556-24.1,18.058-27.052s24.688,4.368,27.217,16.354-5.757,16.407-18.259,19.361S390.637,463.69,388.108,451.7Z" transform="translate(-223.299 -231.51)"/>
    <path id="Path_110" data-name="Path 110" class="cls-5" d="M5.173-.1c2.844-.061,4.992,6.976,4.8,15.718s-2.659,15.879-5.5,15.94S-.525,24.578-.33,15.836,2.329-.043,5.173-.1Z" transform="translate(143.64 233.255) rotate(-64.626)"/>
    <ellipse id="Ellipse_39" data-name="Ellipse 39" class="cls-5" cx="31.324" cy="33.146" rx="31.324" ry="33.146" transform="translate(28.241 251.434)"/>
    <rect id="Rectangle_18" data-name="Rectangle 18" class="cls-5" width="9.516" height="18.041" transform="translate(45.291 310.593)"/>
    <rect id="Rectangle_19" data-name="Rectangle 19" class="cls-5" width="9.516" height="18.041" transform="translate(64.323 310.593)"/>
    <ellipse id="Ellipse_40" data-name="Ellipse 40" class="cls-5" cx="7.93" cy="3.147" rx="7.93" ry="3.147" transform="translate(45.291 325.698)"/>
    <ellipse id="Ellipse_41" data-name="Ellipse 41" class="cls-5" cx="7.93" cy="3.147" rx="7.93" ry="3.147" transform="translate(64.323 325.278)"/>
    <ellipse id="Ellipse_42" data-name="Ellipse 42" class="cls-3" cx="10.706" cy="11.328" rx="10.706" ry="11.328" transform="translate(49.652 264.86)"/>
    <ellipse id="Ellipse_43" data-name="Ellipse 43" class="cls-4" cx="3.569" cy="3.776" rx="3.569" ry="3.776" transform="translate(56.789 272.413)"/>
    <path id="Path_90" data-name="Path 90" class="cls-7" d="M201.63,495.311c-2.529-11.986,5.556-24.1,18.058-27.052s24.688,4.368,27.217,16.354-5.757,16.407-18.259,19.361S204.159,507.3,201.63,495.311Z" transform="translate(-172.45 -241.556)"/>
    <path id="Path_112" data-name="Path 112" class="cls-5" d="M33.118-.27C51.4-.429,66.088,13.487,65.929,30.812s-15.107,31.5-33.387,31.659S-.428,48.714-.269,31.388,14.838-.111,33.118-.27Z" transform="translate(12.902 216.762) rotate(-80.783)"/>
    <rect id="Rectangle_20" data-name="Rectangle 20" class="cls-5" width="9.516" height="18.041" transform="translate(34.585 215.351)"/>
    <rect id="Rectangle_21" data-name="Rectangle 21" class="cls-5" width="9.516" height="18.041" transform="translate(53.617 215.351)"/>
    <ellipse id="Ellipse_46" data-name="Ellipse 46" class="cls-5" cx="7.93" cy="3.147" rx="7.93" ry="3.147" transform="translate(34.585 230.456)"/>
    <ellipse id="Ellipse_47" data-name="Ellipse 47" class="cls-5" cx="7.93" cy="3.147" rx="7.93" ry="3.147" transform="translate(53.617 230.037)"/>
    <ellipse id="Ellipse_48" data-name="Ellipse 48" class="cls-3" cx="10.706" cy="11.328" rx="10.706" ry="11.328" transform="translate(38.947 169.619)"/>
    <ellipse id="Ellipse_49" data-name="Ellipse 49" class="cls-4" cx="3.569" cy="3.776" rx="3.569" ry="3.776" transform="translate(46.084 177.171)"/>
    <path id="Path_91" data-name="Path 91" class="cls-6" d="M186.911,371.561c-2.529-11.986,5.556-24.1,18.058-27.052s24.688,4.368,27.217,16.354-5.757,16.407-18.259,19.361S189.44,383.547,186.911,371.561Z" transform="translate(-168.437 -213.047)"/>
    <path id="Path_113" data-name="Path 113" class="cls-5" d="M5.173-.1c2.844-.061,4.992,6.976,4.8,15.718s-2.659,15.879-5.5,15.94S-.525,24.578-.33,15.836,2.329-.043,5.173-.1Z" transform="translate(-2.695 171.575) rotate(-64.626)"/>
    <path id="Path_92" data-name="Path 92" class="cls-3" d="M207.707,434.238c0,3.244,7.894,9.65,16.653,9.65s16.972-9.133,16.972-12.377-8.213.629-16.972.629S207.707,430.994,207.707,434.238Z" transform="translate(-174.234 -232.942)"/>
    <g id="minion-ba">
      <path id="Path_111" data-name="Path 111" class="cls-5" d="M16.463-.285c9.089-.168,16.414,1.914,16.361,4.649S25.361,9.454,16.272,9.622-.142,7.708-.09,4.972,7.374-.117,16.463-.285Z" transform="matrix(0.357, -0.934, 0.934, 0.357, 67.607, 177.931)"/>
      <path id="Path_93" data-name="Path 93" class="cls-8" d="M270.386,255.461a2.25,2.25,0,0,0-2.182,2.309V353.2a2.251,2.251,0,0,0,2.182,2.309h208.74a2.251,2.251,0,0,0,2.182-2.309V257.77a2.251,2.251,0,0,0-2.182-2.309Z" transform="translate(-190.73 -192.684)"/>
      <ellipse id="Ellipse_51" data-name="Ellipse 51" class="cls-3" cx="21.18" cy="22.412" rx="21.18" ry="22.412" transform="translate(114.838 90.391)"/>
      <path id="Path_40" data-name="Path 40" class="cls-3" d="M413.494,316.587a2.625,2.625,0,0,0,0,5.241h66.874a2.625,2.625,0,0,0,.081-5.241H413.494Z" transform="translate(-229.673 -206.765)"/>
      <path id="Path_40-2" data-name="Path 40" class="cls-3" d="M413.494,296.86a2.625,2.625,0,0,0,0,5.241h33.4a2.625,2.625,0,0,0,.081-5.241H413.494Z" transform="translate(-229.673 -202.221)"/>
      <path id="Path_40-3" data-name="Path 40" class="cls-3" d="M413.494,337.253a2.625,2.625,0,0,0,0,5.241h66.874a2.625,2.625,0,0,0,.081-5.241H413.494Z" transform="translate(-229.673 -211.526)"/>
    </g>
    <path id="Path_115" data-name="Path 115" class="cls-5" d="M31.388-.269C48.714-.428,62.63,14.261,62.471,32.542S48.137,65.77,30.812,65.929-.429,51.4-.27,33.118,14.063-.11,31.388-.269Z" transform="translate(489.463 291.306) rotate(-9.217)"/>
    <path id="Path_94" data-name="Path 94" class="cls-5" d="M739.468,447.932h-9.516l1.862,21.606,7.67-2.2Z" transform="translate(-199.775 -103.191)"/>
    <path id="Path_95" data-name="Path 95" class="cls-5" d="M710.944,448.005h-9.516l1.862,21.606,7.324-2.261Z" transform="translate(-191.997 -103.208)"/>
    <path id="Path_118" data-name="Path 118" class="cls-5" d="M7.932-.031c4.381-.017,7.926,1.376,7.92,3.112S12.289,6.239,7.908,6.256-.018,4.88-.012,3.144,3.551-.014,7.932-.031Z" transform="translate(502.682 361.754) rotate(-4.182)"/>
    <ellipse id="Ellipse_55" data-name="Ellipse 55" class="cls-3" cx="10.706" cy="11.328" rx="10.706" ry="11.328" transform="translate(513.921 299.008)"/>
    <ellipse id="Ellipse_56" data-name="Ellipse 56" class="cls-4" cx="3.569" cy="3.776" rx="3.569" ry="3.776" transform="translate(521.058 306.56)"/>
    <path id="Path_96" data-name="Path 96" class="cls-3" d="M863.077,607.85c0-2.674,6.506-7.953,13.725-7.953s13.988,7.527,13.988,10.2-6.769-.519-13.988-.519S863.077,610.524,863.077,607.85Z" transform="translate(-352.941 -272.032)"/>
    <path id="Path_99" data-name="Path 99" class="cls-9" d="M748.517,310.8l-29.887-4.384,17.626-20.4,1.269-1.469.634-.735,1.012,2.632Z" transform="translate(-196.687 -65.383)"/>
    <g id="minion-yellow">
      <path id="Path_114" data-name="Path 114" class="cls-5" d="M4.972-.09C7.708-.142,9.789,7.183,9.622,16.272S7.1,32.771,4.364,32.824-.453,25.552-.285,16.463,2.237-.037,4.972-.09Z" transform="matrix(0.934, -0.357, 0.357, 0.934, 492.806, 273.147)"/>
      <path id="Path_117" data-name="Path 117" class="cls-5" d="M16.259-.408C25.235-.648,32.45,1.4,32.374,4.174S24.961,9.387,15.986,9.627-.2,7.816-.129,5.045,7.284-.167,16.259-.408Z" transform="translate(545.228 305.884) rotate(-53.55)"/>
      <path id="Path_97" data-name="Path 97" class="cls-10" d="M938.929,497.655,767.464,472.5a5.35,5.35,0,0,1-4.344-6.076L782.4,319.295a5.155,5.155,0,0,1,5.742-4.6L959.6,339.851a5.35,5.35,0,0,1,4.344,6.076L944.668,493.059A5.155,5.155,0,0,1,938.929,497.655Z" transform="translate(-325.671 -206.319)"/>
      <path id="Path_98" data-name="Path 98" class="cls-3" d="M887.462,467.646l-87.536-12.84a1.71,1.71,0,0,1-.323-.075l51.342-69.81a2.853,2.853,0,0,1,2.727-1.187,2.961,2.961,0,0,1,2.319,1.927l21.114,55,1.012,2.632Z" transform="translate(-335.633 -222.227)"/>
      <path id="Path_100" data-name="Path 100" class="cls-3" d="M959.03,483.894l-75.712-11.106,17.626-20.4,1.269-1.47,22.968-26.583a3.78,3.78,0,0,1,3-1.125,3.853,3.853,0,0,1,2.794,1.6,3.764,3.764,0,0,1,.228.4Z" transform="translate(-358.46 -231.326)"/>
      <ellipse id="Ellipse_58" data-name="Ellipse 58" class="cls-3" cx="13.092" cy="13.853" rx="13.092" ry="13.853" transform="translate(539.803 158.685)"/>
      <path id="Path_119" data-name="Path 119" class="cls-3" d="M0,0,16.026.118l.119,16.923L.119,16.923Z" transform="translate(465.391 119.691) rotate(7.893)"/>
    </g>
    <path id="Path_101" data-name="Path 101" class="cls-7" d="M908.721,539.68c2.529-11.986-5.556-24.1-18.058-27.052S865.974,517,863.445,528.982s5.757,16.407,18.259,19.361S906.192,551.666,908.721,539.68Z" transform="translate(-352.917 -251.777)"/>
    <path id="Path_120" data-name="Path 120" class="cls-5" d="M7.932-.031c4.381-.017,7.926,1.376,7.92,3.112S12.289,6.239,7.908,6.256-.018,4.88-.012,3.144,3.551-.014,7.932-.031Z" transform="translate(523.551 361.7) rotate(-4.182)"/>
  </g>
</svg>
