<svg xmlns="http://www.w3.org/2000/svg" xmlns:xlink="http://www.w3.org/1999/xlink" width="75" height="25" viewBox="0 0 75 25">
  <defs>
    <linearGradient id="linear-gradient" x1="0.936" y1="0.207" x2="0" y2="1" gradientUnits="objectBoundingBox">
      <stop offset="0" stop-color="#e64c89"/>
      <stop offset="1" stop-color="#ff9399"/>
    </linearGradient>
  </defs>
  <g id="Group_26" data-name="Group 26" transform="translate(-694 -1086)">
    <g id="Group_24" data-name="Group 24" transform="translate(697.646 1088.017)">
      <path id="Path_10" data-name="Path 10" d="M7.283,0c4.793,0,9.506,2.624,9.506,7.191,0,1.63-2.832,1.222-4.855,1.078-.607-4.133-8.5-6.638-8.5,4.626,0,12.222.6,7.708,0,7.741-.5.461-4.468.258-4.833,0-.225-12.426,0-9.766,0-12.367A8.481,8.481,0,0,1,7.283,0Z" transform="translate(1.495 0)" fill="url(#linear-gradient)"/>
      <ellipse id="Ellipse_12" data-name="Ellipse 12" cx="2.991" cy="2.118" rx="2.991" ry="2.118" transform="translate(4.923 11.788) rotate(-25)" fill="url(#linear-gradient)"/>
    </g>
    <rect id="Rectangle_168" data-name="Rectangle 168" width="50" height="25" transform="translate(719 1086)" fill="#ff9399"/>
    <g id="Rectangle_169" data-name="Rectangle 169" transform="translate(694 1086)" fill="none" stroke="#ff9399" stroke-width="1">
      <rect width="25" height="25" stroke="none"/>
      <rect x="0.5" y="0.5" width="24" height="24" fill="none"/>
    </g>
    <text id="frothy" transform="translate(723 1102)" fill="#fff" font-size="11" font-family="LetterGothicStd, Letter Gothic Std"><tspan x="0" y="0">frothy</tspan></text>
  </g>
</svg>
