<svg id="meal-svg" xmlns="http://www.w3.org/2000/svg" width="308.871" height="308.87" viewBox="0 0 308.871 308.87">
  <defs>
    <style>
      .cls-1 {
        fill: #6c63ff;
      }

      .cls-2 {
        opacity: 0.2;
      }

      .cls-3 {
        fill: #3f3d56;
      }

      .cls-4 {
        fill: #ff6584;
      }

      .cls-5 {
        fill: #e6e6e6;
      }

      .cls-6 {
        fill: #f9a825;
      }

      .cls-7 {
        fill: #00bf71;
      }
    </style>
  </defs>
  <path id="Path_53" data-name="Path 53" class="cls-1" d="M154.435,0A154.435,154.435,0,1,1,0,154.435,154.435,154.435,0,0,1,154.435,0Z"/>
  <path id="Path_7" data-name="Path 7" class="cls-2" d="M541.764,507.985A117.718,117.718,0,1,1,625,473.506,117.718,117.718,0,0,1,541.764,507.985Zm0-228.177A110.458,110.458,0,1,0,652.223,390.266,110.583,110.583,0,0,0,541.764,279.808Z" transform="translate(-387.328 -235.83)"/>
  <circle id="Ellipse_5" data-name="Ellipse 5" class="cls-3" cx="114.66" cy="114.66" r="114.66" transform="translate(39.775 39.775)"/>
  <path id="Path_8" data-name="Path 8" class="cls-4" d="M472.29,366.814a12.2,12.2,0,1,1,21.75-11.076l27.168,53.349a12.2,12.2,0,0,1-21.75,11.076Z" transform="translate(-397.271 -254.129)"/>
  <path id="Path_9" data-name="Path 9" class="cls-2" d="M477.741,380.671l-1.254-2.462a70.473,70.473,0,0,1,21.75-11.076l1.254,2.462C490.676,371.43,483.178,374.827,477.741,380.671Z" transform="translate(-400.445 -264.36)"/>
  <path id="Path_10" data-name="Path 10" class="cls-2" d="M488.147,401.106l-1.254-2.462a70.473,70.473,0,0,1,21.75-11.076l1.254,2.462C501.083,391.865,493.584,395.262,488.147,401.106Z" transform="translate(-404.13 -271.659)"/>
  <path id="Path_11" data-name="Path 11" class="cls-2" d="M498.554,421.542,497.3,419.08A70.474,70.474,0,0,1,519.05,408l1.254,2.462C511.49,412.3,503.991,415.7,498.554,421.542Z" transform="translate(-407.815 -278.958)"/>
  <path id="Path_12" data-name="Path 12" class="cls-2" d="M508.96,441.977l-1.254-2.462a70.471,70.471,0,0,1,21.75-11.076l1.254,2.462C521.9,432.737,514.4,436.133,508.96,441.977Z" transform="translate(-411.5 -286.257)"/>
  <path id="Path_13" data-name="Path 13" class="cls-2" d="M519.367,462.412l-1.254-2.462a70.477,70.477,0,0,1,21.75-11.076l1.254,2.462C532.3,453.172,524.8,456.568,519.367,462.412Z" transform="translate(-415.185 -293.556)"/>
  <path id="Path_14" data-name="Path 14" class="cls-4" d="M436.043,402.333a12.2,12.2,0,1,1,21.75-11.076l27.168,53.349a12.2,12.2,0,0,1-21.75,11.076Z" transform="translate(-384.828 -265.87)"/>
  <path id="Path_15" data-name="Path 15" class="cls-2" d="M441.492,416.19l-1.254-2.462a70.474,70.474,0,0,1,21.75-11.076l1.254,2.462C454.428,406.95,446.929,410.346,441.492,416.19Z" transform="translate(-387.609 -277.047)"/>
  <path id="Path_16" data-name="Path 16" class="cls-2" d="M451.9,436.625l-1.254-2.462a70.475,70.475,0,0,1,21.75-11.076l1.254,2.462C464.835,427.384,457.336,430.781,451.9,436.625Z" transform="translate(-391.294 -284.346)"/>
  <path id="Path_17" data-name="Path 17" class="cls-2" d="M462.3,457.061l-1.254-2.462a70.472,70.472,0,0,1,21.75-11.076l1.254,2.462C475.241,447.82,467.742,451.217,462.3,457.061Z" transform="translate(-394.979 -291.645)"/>
  <path id="Path_18" data-name="Path 18" class="cls-2" d="M472.712,477.5l-1.254-2.462a70.47,70.47,0,0,1,21.75-11.076l1.254,2.462C485.648,468.255,478.149,471.652,472.712,477.5Z" transform="translate(-398.664 -298.944)"/>
  <path id="Path_19" data-name="Path 19" class="cls-2" d="M483.119,497.931l-1.254-2.462a70.471,70.471,0,0,1,21.75-11.076l1.254,2.462C496.054,488.69,488.556,492.087,483.119,497.931Z" transform="translate(-402.349 -306.243)"/>
  <path id="Path_20" data-name="Path 20" class="cls-5" d="M653.869,396.608h.086a14.557,14.557,0,0,0,13.629-9.129,47.647,47.647,0,1,0-63.473,26.1,14.432,14.432,0,0,0,16.028-2.972A47.49,47.49,0,0,1,653.869,396.608Z" transform="translate(-428.129 -244.268)"/>
  <circle id="Ellipse_6" data-name="Ellipse 6" class="cls-6" cx="15.735" cy="15.735" r="15.735" transform="translate(184.597 107.43)"/>
  <circle id="Ellipse_7" data-name="Ellipse 7" class="cls-3" cx="1.854" cy="1.854" r="1.854" transform="translate(158.928 117.62)"/>
  <circle id="Ellipse_8" data-name="Ellipse 8" class="cls-3" cx="1.854" cy="1.854" r="1.854" transform="translate(89.292 119.61)"/>
  <circle id="Ellipse_9" data-name="Ellipse 9" class="cls-3" cx="1.854" cy="1.854" r="1.854" transform="translate(170.17 95.758)"/>
  <circle id="Ellipse_10" data-name="Ellipse 10" class="cls-3" cx="1.854" cy="1.854" r="1.854" transform="translate(170.11 156.561)"/>
  <circle id="Ellipse_11" data-name="Ellipse 11" class="cls-3" cx="1.854" cy="1.854" r="1.854" transform="translate(211.892 91.402)"/>
  <circle id="Ellipse_12" data-name="Ellipse 12" class="cls-3" cx="1.854" cy="1.854" r="1.854" transform="translate(75.605 149.1)"/>
  <circle id="Ellipse_13" data-name="Ellipse 13" class="cls-3" cx="1.854" cy="1.854" r="1.854" transform="translate(91.024 179.441)"/>
  <circle id="Ellipse_14" data-name="Ellipse 14" class="cls-4" cx="6.993" cy="6.993" r="6.993" transform="translate(182.928 178.429)"/>
  <path id="Path_21" data-name="Path 21" class="cls-2" d="M656.862,497.982a5.245,5.245,0,1,1-10.49,0" transform="translate(-461.755 -311.825)"/>
  <path id="Path_22" data-name="Path 22" class="cls-2" d="M646.371,492.345a5.245,5.245,0,0,1,10.49,0" transform="translate(-461.755 -307.911)"/>
  <ellipse id="Ellipse_15" data-name="Ellipse 15" class="cls-4" cx="0.437" cy="0.656" rx="0.437" ry="0.656" transform="translate(186.288 181.853)"/>
  <ellipse id="Ellipse_16" data-name="Ellipse 16" class="cls-4" cx="0.437" cy="0.656" rx="0.437" ry="0.656" transform="translate(189.269 180.859)"/>
  <ellipse id="Ellipse_17" data-name="Ellipse 17" class="cls-4" cx="0.437" cy="0.656" rx="0.437" ry="0.656" transform="translate(189.269 187.318)"/>
  <ellipse id="Ellipse_18" data-name="Ellipse 18" class="cls-4" cx="0.437" cy="0.656" rx="0.437" ry="0.656" transform="translate(192.25 183.343)"/>
  <ellipse id="Ellipse_19" data-name="Ellipse 19" class="cls-4" cx="0.437" cy="0.656" rx="0.437" ry="0.656" transform="translate(191.753 188.809)"/>
  <ellipse id="Ellipse_20" data-name="Ellipse 20" class="cls-4" cx="0.437" cy="0.656" rx="0.437" ry="0.656" transform="translate(185.791 186.324)"/>
  <circle id="Ellipse_21" data-name="Ellipse 21" class="cls-4" cx="6.993" cy="6.993" r="6.993" transform="translate(198.922 156.938)"/>
  <path id="Path_23" data-name="Path 23" class="cls-2" d="M681.737,464.556a5.245,5.245,0,0,1-10.49,0" transform="translate(-470.663 -299.802)"/>
  <path id="Path_24" data-name="Path 24" class="cls-2" d="M671.246,458.919a5.245,5.245,0,0,1,10.49,0" transform="translate(-470.663 -295.888)"/>
  <ellipse id="Ellipse_22" data-name="Ellipse 22" class="cls-4" cx="0.437" cy="0.656" rx="0.437" ry="0.656" transform="translate(202.184 160.487)"/>
  <ellipse id="Ellipse_23" data-name="Ellipse 23" class="cls-4" cx="0.437" cy="0.656" rx="0.437" ry="0.656" transform="translate(205.166 159.493)"/>
  <ellipse id="Ellipse_24" data-name="Ellipse 24" class="cls-4" cx="0.437" cy="0.656" rx="0.437" ry="0.656" transform="translate(205.166 165.953)"/>
  <ellipse id="Ellipse_25" data-name="Ellipse 25" class="cls-4" cx="0.437" cy="0.656" rx="0.437" ry="0.656" transform="translate(208.146 161.978)"/>
  <ellipse id="Ellipse_26" data-name="Ellipse 26" class="cls-4" cx="0.437" cy="0.656" rx="0.437" ry="0.656" transform="translate(207.649 167.443)"/>
  <ellipse id="Ellipse_27" data-name="Ellipse 27" class="cls-4" cx="0.437" cy="0.656" rx="0.437" ry="0.656" transform="translate(201.688 164.959)"/>
  <circle id="Ellipse_28" data-name="Ellipse 28" class="cls-1" cx="6.993" cy="6.993" r="6.993" transform="translate(214.916 167.934)"/>
  <path id="Path_25" data-name="Path 25" class="cls-2" d="M706.612,481.658a5.245,5.245,0,0,1-10.49,0" transform="translate(-479.571 -305.953)"/>
  <path id="Path_26" data-name="Path 26" class="cls-2" d="M696.121,476.02a5.245,5.245,0,0,1,10.49,0" transform="translate(-479.571 -302.039)"/>
  <ellipse id="Ellipse_29" data-name="Ellipse 29" class="cls-1" cx="0.437" cy="0.656" rx="0.437" ry="0.656" transform="translate(218.081 171.419)"/>
  <ellipse id="Ellipse_30" data-name="Ellipse 30" class="cls-1" cx="0.437" cy="0.656" rx="0.437" ry="0.656" transform="translate(221.062 170.425)"/>
  <ellipse id="Ellipse_31" data-name="Ellipse 31" class="cls-1" cx="0.437" cy="0.656" rx="0.437" ry="0.656" transform="translate(221.062 176.884)"/>
  <ellipse id="Ellipse_32" data-name="Ellipse 32" class="cls-1" cx="0.437" cy="0.656" rx="0.437" ry="0.656" transform="translate(224.043 172.909)"/>
  <ellipse id="Ellipse_33" data-name="Ellipse 33" class="cls-1" cx="0.437" cy="0.656" rx="0.437" ry="0.656" transform="translate(223.545 178.375)"/>
  <ellipse id="Ellipse_34" data-name="Ellipse 34" class="cls-1" cx="0.437" cy="0.656" rx="0.437" ry="0.656" transform="translate(217.585 175.89)"/>
  <circle id="Ellipse_35" data-name="Ellipse 35" class="cls-1" cx="6.993" cy="6.993" r="6.993" transform="translate(174.931 168.934)"/>
  <path id="Path_27" data-name="Path 27" class="cls-2" d="M644.424,483.213a5.245,5.245,0,0,1-10.49,0" transform="translate(-457.301 -306.513)"/>
  <path id="Path_28" data-name="Path 28" class="cls-2" d="M633.934,477.575a5.245,5.245,0,1,1,10.49,0" transform="translate(-457.301 -302.598)"/>
  <ellipse id="Ellipse_36" data-name="Ellipse 36" class="cls-1" cx="0.437" cy="0.656" rx="0.437" ry="0.656" transform="translate(178.34 172.412)"/>
  <ellipse id="Ellipse_37" data-name="Ellipse 37" class="cls-1" cx="0.437" cy="0.656" rx="0.437" ry="0.656" transform="translate(181.321 171.419)"/>
  <ellipse id="Ellipse_38" data-name="Ellipse 38" class="cls-1" cx="0.437" cy="0.656" rx="0.437" ry="0.656" transform="translate(181.321 177.877)"/>
  <ellipse id="Ellipse_39" data-name="Ellipse 39" class="cls-1" cx="0.437" cy="0.656" rx="0.437" ry="0.656" transform="translate(184.301 173.902)"/>
  <ellipse id="Ellipse_40" data-name="Ellipse 40" class="cls-1" cx="0.437" cy="0.656" rx="0.437" ry="0.656" transform="translate(183.805 179.368)"/>
  <ellipse id="Ellipse_41" data-name="Ellipse 41" class="cls-1" cx="0.437" cy="0.656" rx="0.437" ry="0.656" transform="translate(177.844 176.884)"/>
  <circle id="Ellipse_42" data-name="Ellipse 42" class="cls-1" cx="6.993" cy="6.993" r="6.993" transform="translate(192.924 172.432)"/>
  <path id="Path_29" data-name="Path 29" class="cls-2" d="M672.409,488.654a5.245,5.245,0,1,1-10.49,0" transform="translate(-467.323 -308.47)"/>
  <path id="Path_30" data-name="Path 30" class="cls-2" d="M661.918,483.016a5.245,5.245,0,0,1,10.49,0" transform="translate(-467.322 -304.555)"/>
  <ellipse id="Ellipse_43" data-name="Ellipse 43" class="cls-1" cx="0.437" cy="0.656" rx="0.437" ry="0.656" transform="translate(196.223 175.89)"/>
  <ellipse id="Ellipse_44" data-name="Ellipse 44" class="cls-1" cx="0.437" cy="0.656" rx="0.437" ry="0.656" transform="translate(199.204 174.896)"/>
  <ellipse id="Ellipse_45" data-name="Ellipse 45" class="cls-1" cx="0.437" cy="0.656" rx="0.437" ry="0.656" transform="translate(199.204 181.356)"/>
  <ellipse id="Ellipse_46" data-name="Ellipse 46" class="cls-1" cx="0.437" cy="0.656" rx="0.437" ry="0.656" transform="translate(202.184 177.381)"/>
  <ellipse id="Ellipse_47" data-name="Ellipse 47" class="cls-1" cx="0.437" cy="0.656" rx="0.437" ry="0.656" transform="translate(201.688 182.846)"/>
  <ellipse id="Ellipse_48" data-name="Ellipse 48" class="cls-1" cx="0.437" cy="0.656" rx="0.437" ry="0.656" transform="translate(195.727 180.362)"/>
  <circle id="Ellipse_49" data-name="Ellipse 49" class="cls-4" cx="6.993" cy="6.993" r="6.993" transform="translate(205.419 180.929)"/>
  <path id="Path_31" data-name="Path 31" class="cls-2" d="M691.842,501.869a5.245,5.245,0,1,1-10.49,0" transform="translate(-474.282 -313.223)"/>
  <path id="Path_32" data-name="Path 32" class="cls-2" d="M681.352,496.231a5.245,5.245,0,1,1,10.49,0" transform="translate(-474.282 -309.308)"/>
  <ellipse id="Ellipse_50" data-name="Ellipse 50" class="cls-4" cx="0.437" cy="0.656" rx="0.437" ry="0.656" transform="translate(208.643 184.337)"/>
  <ellipse id="Ellipse_51" data-name="Ellipse 51" class="cls-4" cx="0.437" cy="0.656" rx="0.437" ry="0.656" transform="translate(211.623 183.343)"/>
  <ellipse id="Ellipse_52" data-name="Ellipse 52" class="cls-4" cx="0.437" cy="0.656" rx="0.437" ry="0.656" transform="translate(211.623 189.802)"/>
  <ellipse id="Ellipse_53" data-name="Ellipse 53" class="cls-4" cx="0.437" cy="0.656" rx="0.437" ry="0.656" transform="translate(214.604 185.828)"/>
  <ellipse id="Ellipse_54" data-name="Ellipse 54" class="cls-4" cx="0.437" cy="0.656" rx="0.437" ry="0.656" transform="translate(214.107 191.293)"/>
  <ellipse id="Ellipse_55" data-name="Ellipse 55" class="cls-4" cx="0.437" cy="0.656" rx="0.437" ry="0.656" transform="translate(208.146 188.809)"/>
  <circle id="Ellipse_56" data-name="Ellipse 56" class="cls-3" cx="1.854" cy="1.854" r="1.854" transform="translate(107.935 155.566)"/>
  <path id="Path_33" data-name="Path 33" class="cls-6" d="M429.689,351.538,385.17,339.192l1.705-6.335L431.395,345.2Z" transform="translate(-265.781 -118.345)"/>
  <path id="Path_34" data-name="Path 34" class="cls-6" d="M572.812,564.458a122.728,122.728,0,0,1-46.151,0v-6.566a141.131,141.131,0,0,0,46.151,0Z" transform="translate(-416.773 -333.008)"/>
  <path id="Path_35" data-name="Path 35" class="cls-6" d="M581.25,529.424a122.728,122.728,0,0,1-46.151,0v-6.567a141.121,141.121,0,0,0,46.151,0Z" transform="translate(-419.688 -320.443)"/>
  <path id="Path_36" data-name="Path 36" class="cls-6" d="M609.631,543.437a122.727,122.727,0,0,1-46.151,0v-6.566a141.131,141.131,0,0,0,46.151,0Z" transform="translate(-429.496 -325.469)"/>
  <path id="Path_37" data-name="Path 37" class="cls-6" d="M616.536,556.673a122.73,122.73,0,0,1-46.151,0v-6.567a141.127,141.127,0,0,0,46.151,0Z" transform="translate(-431.881 -330.216)"/>
  <path id="Path_38" data-name="Path 38" class="cls-6" d="M484.264,366.781l-45.532,7.648-1.056-6.479,45.532-7.648Z" transform="translate(-283.887 -128.626)"/>
  <path id="Path_39" data-name="Path 39" class="cls-6" d="M629.688,575.932a123.683,123.683,0,0,1-41.936,19.559l-2.7-5.967a142.231,142.231,0,0,0,41.936-19.559Z" transform="translate(-437.088 -335.386)"/>
  <path id="Path_40" data-name="Path 40" class="cls-6" d="M622.941,540.521a123.682,123.682,0,0,1-41.935,19.559l-2.7-5.967a142.239,142.239,0,0,0,41.935-19.559Z" transform="translate(-434.753 -322.877)"/>
  <path id="Path_41" data-name="Path 41" class="cls-6" d="M654.5,541.227a123.686,123.686,0,0,1-41.935,19.559l-2.7-5.967a142.236,142.236,0,0,0,41.935-19.559Z" transform="translate(-445.675 -323.126)"/>
  <path id="Path_42" data-name="Path 42" class="cls-6" d="M666.214,550.327a123.685,123.685,0,0,1-41.935,19.559l-2.7-5.967a142.235,142.235,0,0,0,41.935-19.559Z" transform="translate(-449.732 -326.341)"/>
  <rect id="Rectangle_9" data-name="Rectangle 9" class="cls-7" width="2.185" height="2.185" transform="translate(153.591 207.771)"/>
  <rect id="Rectangle_10" data-name="Rectangle 10" class="cls-7" width="2.185" height="2.185" transform="translate(161.047 257.731)"/>
  <rect id="Rectangle_11" data-name="Rectangle 11" class="cls-7" width="2.185" height="2.185" transform="translate(121.282 207.771)"/>
  <rect id="Rectangle_12" data-name="Rectangle 12" class="cls-7" width="2.185" height="2.185" transform="translate(178.941 238.588)"/>
  <rect id="Rectangle_13" data-name="Rectangle 13" class="cls-7" width="2.185" height="2.185" transform="translate(180.432 224.173)"/>
  <rect id="Rectangle_14" data-name="Rectangle 14" class="cls-7" width="3.06" height="1.748" transform="translate(138.994 215.508) rotate(34.156)"/>
  <rect id="Rectangle_15" data-name="Rectangle 15" class="cls-7" width="3.06" height="1.748" transform="translate(168.338 220.978) rotate(34.156)"/>
  <rect id="Rectangle_16" data-name="Rectangle 16" class="cls-7" width="3.06" height="1.748" transform="translate(132.528 230.426) rotate(34.156)"/>
  <rect id="Rectangle_17" data-name="Rectangle 17" class="cls-7" width="3.06" height="1.748" transform="translate(155.281 229.259) rotate(124.156)"/>
  <rect id="Rectangle_18" data-name="Rectangle 18" class="cls-7" width="3.06" height="1.748" transform="translate(168.707 232.74) rotate(124.156)"/>
  <rect id="Rectangle_19" data-name="Rectangle 19" class="cls-7" width="3.06" height="1.748" transform="translate(204.512 220.803) rotate(124.156)"/>
</svg>
