<svg xmlns="http://www.w3.org/2000/svg" width="191" height="166.555" viewBox="0 0 191 166.555">
  <g id="minion-together" transform="translate(-92 -1036)">
    <path id="Path_274" data-name="Path 274" d="M151.4,500h12.533a4.947,4.947,0,0,1-4.947,4.947h-2.638A4.947,4.947,0,0,1,151.4,500Z" transform="translate(30.805 643.545)" fill="#3f3d56"/>
    <path id="Path_275" data-name="Path 275" d="M360.536,261.115v-4.6c0-5.555,6.042-10.809,9.961-14.558,5.524-5.281,8.428-12.376,8.428-20.688a27.584,27.584,0,1,0-55.167-.153q0,.077,0,.153a28.394,28.394,0,0,0,8.428,20.688c3.9,3.68,9.961,8.946,9.961,14.558v4.6" transform="translate(-162.865 871.354)" fill="#e64c89"/>
    <path id="Path_276" data-name="Path 276" d="M358.181,259.685a.645.645,0,0,1-.645-.645v-4.6c0-5.4,5.33-10.449,9.221-14.133.323-.306.637-.6.938-.891,5.384-5.147,8.229-12.139,8.229-20.222a26.652,26.652,0,0,0-26.938-26.939h-.076a26.893,26.893,0,0,0-26.862,26.787v.15a27.726,27.726,0,0,0,8.226,20.22c.265.25.54.508.822.772,3.942,3.691,9.341,8.745,9.341,14.255v4.6a.645.645,0,0,1-1.291,0v-4.6c0-4.95-5.163-9.784-8.932-13.313-.284-.265-.56-.524-.826-.775a29.018,29.018,0,0,1-8.631-21.157v-.155a28.186,28.186,0,0,1,28.151-28.074h.08A28.082,28.082,0,0,1,377.216,219.2c0,8.443-2.983,15.758-8.628,21.154-.3.29-.619.589-.943.9-3.721,3.523-8.818,8.347-8.818,13.2v4.6a.645.645,0,0,1-.645.645Z" transform="translate(-160.511 873.43)" fill="#3f3d56"/>
    <path id="Path_277" data-name="Path 277" d="M431.837,541.1H419.577a1.075,1.075,0,1,1,0-2.151h12.259a1.075,1.075,0,1,1,0,2.151Z" transform="translate(-237.231 600.298)" fill="#e64c89"/>
    <path id="Path_273" data-name="Path 273" d="M281.773,167.082a1.071,1.071,0,0,1-.707-.265l-9.236-8.062a1.075,1.075,0,0,1,1.414-1.62l9.236,8.062a1.075,1.075,0,0,1-.708,1.886Z" transform="translate(-121.818 900.193)" fill="#f7ff0d"/>
    <path id="Path_278" data-name="Path 278" d="M573.552,167.082a1.075,1.075,0,0,1-.708-1.886l9.236-8.062a1.075,1.075,0,0,1,1.414,1.62l-9.236,8.062A1.071,1.071,0,0,1,573.552,167.082Z" transform="translate(-358.087 900.193)" fill="#f7ff0d"/>
    <path id="Path_279" data-name="Path 279" d="M423.718,523.349H405.328a1.075,1.075,0,0,1,0-2.151h18.389a1.075,1.075,0,0,1,0,2.151Z" transform="translate(-226.047 614.228)" fill="#e64c89"/>
    <path id="Path_280" data-name="Path 280" d="M448.076,415.127A1.075,1.075,0,0,1,447,414.051V389.532a1.075,1.075,0,0,1,2.151,0v24.519A1.075,1.075,0,0,1,448.076,415.127Z" transform="translate(-259.6 718.418)" fill="#fff"/>
    <path id="Path_281" data-name="Path 281" d="M421.513,379.423c-3.475,0-7.741-3.144-7.921-3.277a1.075,1.075,0,1,1,1.284-1.726c1.069.793,4.346,2.852,6.637,2.852s5.568-2.059,6.638-2.853a1.075,1.075,0,1,1,1.283,1.726C429.255,376.279,424.988,379.423,421.513,379.423Z" transform="translate(-233.037 729.603)" fill="#fff"/>
    <path id="Path_282" data-name="Path 282" d="M448.075,79.485A1.076,1.076,0,0,1,447,78.41V60.02a1.075,1.075,0,0,1,2.151,0V78.41a1.075,1.075,0,0,1-1.075,1.075Z" transform="translate(-259.599 977.055)" fill="#f7ff0d"/>
    <g id="Group_29" data-name="Group 29" transform="translate(92 1158.087)">
      <rect id="Rectangle_162" data-name="Rectangle 162" width="191" height="0.482" transform="translate(0 29.985)" fill="#3f3d56"/>
      <ellipse id="Ellipse_123" data-name="Ellipse 123" cx="6.956" cy="2.184" rx="6.956" ry="2.184" transform="translate(81.784 23.142) rotate(-21.176)" fill="#2f2e41"/>
      <ellipse id="Ellipse_124" data-name="Ellipse 124" cx="13.913" cy="13.913" rx="13.913" ry="13.913" transform="translate(61.212 10.655)" fill="#2f2e41"/>
      <rect id="Rectangle_163" data-name="Rectangle 163" width="4.227" height="7.573" transform="translate(68.785 35.487)" fill="#2f2e41"/>
      <rect id="Rectangle_164" data-name="Rectangle 164" width="4.227" height="7.573" transform="translate(77.238 35.487)" fill="#2f2e41"/>
      <ellipse id="Ellipse_125" data-name="Ellipse 125" cx="3.522" cy="1.321" rx="3.522" ry="1.321" transform="translate(68.784 41.827)" fill="#2f2e41"/>
      <ellipse id="Ellipse_126" data-name="Ellipse 126" cx="3.522" cy="1.321" rx="3.522" ry="1.321" transform="translate(77.238 41.651)" fill="#2f2e41"/>
      <circle id="Ellipse_127" data-name="Ellipse 127" cx="4.755" cy="4.755" r="4.755" transform="translate(70.722 16.291)" fill="#fff"/>
      <circle id="Ellipse_128" data-name="Ellipse 128" cx="1.585" cy="1.585" r="1.585" transform="translate(73.892 19.461)" fill="#3f3d56"/>
      <path id="Path_259" data-name="Path 259" d="M441.773,492.52c-1.123-5.031,2.468-10.115,8.021-11.355S460.76,483,461.883,488.03s-2.557,6.887-8.11,8.127S442.9,497.551,441.773,492.52Z" transform="translate(-380.145 -480.891)" fill="#e6e6e6"/>
      <ellipse id="Ellipse_129" data-name="Ellipse 129" cx="6.956" cy="2.184" rx="6.956" ry="2.184" transform="translate(54.712 29.661) rotate(-45)" fill="#2f2e41"/>
      <path id="Path_260" data-name="Path 260" d="M473.5,612.287c0,1.362,3.506,4.051,7.4,4.051s7.538-3.834,7.538-5.2-3.648.264-7.538.264S473.5,610.925,473.5,612.287Z" transform="translate(-405.207 -582.7)" fill="#fff"/>
      <ellipse id="Ellipse_130" data-name="Ellipse 130" cx="2.184" cy="6.956" rx="2.184" ry="6.956" transform="translate(93.374 22.189) rotate(-68.824)" fill="#2f2e41"/>
      <ellipse id="Ellipse_131" data-name="Ellipse 131" cx="13.913" cy="13.913" rx="13.913" ry="13.913" transform="translate(100.672 10.655)" fill="#2f2e41"/>
      <rect id="Rectangle_165" data-name="Rectangle 165" width="4.227" height="7.573" transform="translate(120.925 43.06) rotate(180)" fill="#2f2e41"/>
      <rect id="Rectangle_166" data-name="Rectangle 166" width="4.227" height="7.573" transform="translate(112.472 43.06) rotate(180)" fill="#2f2e41"/>
      <ellipse id="Ellipse_132" data-name="Ellipse 132" cx="3.522" cy="1.321" rx="3.522" ry="1.321" transform="translate(113.881 41.827)" fill="#2f2e41"/>
      <ellipse id="Ellipse_133" data-name="Ellipse 133" cx="3.522" cy="1.321" rx="3.522" ry="1.321" transform="translate(105.427 41.651)" fill="#2f2e41"/>
      <circle id="Ellipse_134" data-name="Ellipse 134" cx="4.755" cy="4.755" r="4.755" transform="translate(109.478 16.291)" fill="#fff"/>
      <circle id="Ellipse_135" data-name="Ellipse 135" cx="1.585" cy="1.585" r="1.585" transform="translate(112.648 19.461)" fill="#3f3d56"/>
      <path id="Path_261" data-name="Path 261" d="M677.354,492.52c1.123-5.031-2.468-10.115-8.021-11.355S658.367,483,657.244,488.03s2.557,6.887,8.11,8.127S676.23,497.551,677.354,492.52Z" transform="translate(-549.273 -480.891)" fill="#ff9399"/>
      <ellipse id="Ellipse_136" data-name="Ellipse 136" cx="2.184" cy="6.956" rx="2.184" ry="6.956" transform="translate(122.073 22.911) rotate(-45)" fill="#2f2e41"/>
      <path id="Path_262" data-name="Path 262" d="M666,612.287c0,1.362-3.506,4.051-7.4,4.051s-7.538-3.834-7.538-5.2,3.648.264,7.538.264S666,610.925,666,612.287Z" transform="translate(-544.583 -582.7)" fill="#fff"/>
    </g>
  </g>
</svg>
