<svg xmlns="http://www.w3.org/2000/svg" width="87.822" height="48.679" viewBox="0 0 87.822 48.679">
  <g id="minion-cup" transform="translate(-0.207 -290)">
    <rect id="Rectangle_190" data-name="Rectangle 190" width="87.822" height="0.431" transform="translate(0.207 337.255)" fill="#6c63ff"/>
    <rect id="Rectangle_213" data-name="Rectangle 213" width="2.725" height="1.022" transform="translate(14.58 291.639)" opacity="0.1"/>
    <rect id="Rectangle_214" data-name="Rectangle 214" width="2.725" height="1.022" transform="translate(14.58 291.639)" opacity="0.1"/>
    <rect id="Rectangle_211" data-name="Rectangle 211" width="2.725" height="1.022" transform="translate(14.58 294.876)" opacity="0.1"/>
    <rect id="Rectangle_212" data-name="Rectangle 212" width="2.725" height="1.022" transform="translate(14.58 294.876)" opacity="0.1"/>
    <rect id="Rectangle_207" data-name="Rectangle 207" width="2.725" height="1.022" transform="translate(14.58 298.112)" opacity="0.1"/>
    <rect id="Rectangle_208" data-name="Rectangle 208" width="2.725" height="1.022" transform="translate(14.58 298.112)" opacity="0.1"/>
    <rect id="Rectangle_205" data-name="Rectangle 205" width="2.725" height="1.022" transform="translate(14.58 301.349)" opacity="0.1"/>
    <rect id="Rectangle_206" data-name="Rectangle 206" width="2.725" height="1.022" transform="translate(14.58 301.349)" opacity="0.1"/>
    <rect id="Rectangle_201" data-name="Rectangle 201" width="2.725" height="1.022" transform="translate(14.58 304.585)" opacity="0.1"/>
    <rect id="Rectangle_202" data-name="Rectangle 202" width="2.725" height="1.022" transform="translate(14.58 304.585)" opacity="0.1"/>
    <rect id="Rectangle_195" data-name="Rectangle 195" width="2.725" height="1.022" transform="translate(14.58 307.822)" opacity="0.1"/>
    <rect id="Rectangle_196" data-name="Rectangle 196" width="2.725" height="1.022" transform="translate(14.58 307.822)" opacity="0.1"/>
    <rect id="Rectangle_209" data-name="Rectangle 209" width="1.022" height="2.725" transform="matrix(0.633, -0.774, 0.774, 0.633, 18.722, 299.411)" opacity="0.1"/>
    <rect id="Rectangle_210" data-name="Rectangle 210" width="1.022" height="2.725" transform="matrix(0.633, -0.774, 0.774, 0.633, 18.722, 299.411)" opacity="0.1"/>
    <rect id="Rectangle_203" data-name="Rectangle 203" width="1.022" height="2.725" transform="matrix(0.633, -0.774, 0.774, 0.633, 16.674, 301.917)" opacity="0.1"/>
    <rect id="Rectangle_204" data-name="Rectangle 204" width="1.022" height="2.725" transform="matrix(0.633, -0.774, 0.774, 0.633, 16.674, 301.917)" opacity="0.1"/>
    <rect id="Rectangle_199" data-name="Rectangle 199" width="1.022" height="2.725" transform="matrix(0.633, -0.774, 0.774, 0.633, 14.626, 304.423)" opacity="0.1"/>
    <rect id="Rectangle_200" data-name="Rectangle 200" width="1.022" height="2.725" transform="matrix(0.633, -0.774, 0.774, 0.633, 14.626, 304.423)" opacity="0.1"/>
    <rect id="Rectangle_197" data-name="Rectangle 197" width="1.022" height="2.725" transform="matrix(0.633, -0.774, 0.774, 0.633, 12.578, 306.929)" opacity="0.1"/>
    <rect id="Rectangle_198" data-name="Rectangle 198" width="1.022" height="2.725" transform="matrix(0.633, -0.774, 0.774, 0.633, 12.578, 306.929)" opacity="0.1"/>
    <path id="Path_296" data-name="Path 296" d="M482.235,387.167h-3.647l.027-.682.157-4.03.078-2h-25.4l.04,1.025.1,2.672.2,5.07.132,3.375.17,4.366.145,3.729.042,1.072v.013l.02.534.053,1.338.005.149.036.908.006.164.052,1.319.046,1.189.016.41.008.187.007.181a4.69,4.69,0,0,0,.351,1.787,4.5,4.5,0,0,0,.207.439,4.725,4.725,0,0,0,2.621,2.234,4.46,4.46,0,0,0,.452.132,4.686,4.686,0,0,0,1.089.127h13.794a4.708,4.708,0,0,0,2.007-.446,4.76,4.76,0,0,0,1.772-1.445,4.662,4.662,0,0,0,.5-.842c.011-.024.022-.048.032-.072a4.656,4.656,0,0,0,.4-1.667c0-.082.007-.164.007-.247l.044-1.137.055-1.4.005-.139.056-1.45h4.306a5.763,5.763,0,0,0,5.756-5.756v-5.352A5.763,5.763,0,0,0,482.235,387.167Zm2.349,11.108a2.352,2.352,0,0,1-2.349,2.349h-4.172v-.015l.039-1.007.03-.768.169-4.322.153-3.938h3.78a2.352,2.352,0,0,1,2.349,2.349Z" transform="translate(-452.289 -74.193)" fill="#462632"/>
    <path id="Path_297" data-name="Path 297" d="M482.235,387.167h-3.647l.027-.682.157-4.03.078-2h-25.4l.04,1.025.1,2.672.2,5.07.132,3.375.17,4.366.145,3.729.042,1.072v.013l.02.534.053,1.338.005.149.036.908.006.164.052,1.319.046,1.189.016.41.008.187.007.181a4.69,4.69,0,0,0,.351,1.787,4.5,4.5,0,0,0,.207.439,4.725,4.725,0,0,0,2.621,2.234,4.46,4.46,0,0,0,.452.132,4.686,4.686,0,0,0,1.089.127h13.794a4.708,4.708,0,0,0,2.007-.446,4.76,4.76,0,0,0,1.772-1.445,4.662,4.662,0,0,0,.5-.842c.011-.024.022-.048.032-.072a4.656,4.656,0,0,0,.4-1.667c0-.082.007-.164.007-.247l.044-1.137.055-1.4.005-.139.056-1.45h4.306a5.763,5.763,0,0,0,5.756-5.756v-5.352A5.763,5.763,0,0,0,482.235,387.167Zm2.349,11.108a2.352,2.352,0,0,1-2.349,2.349h-4.172v-.015l.039-1.007.03-.768.169-4.322.153-3.938h3.78a2.352,2.352,0,0,1,2.349,2.349Z" transform="translate(-452.289 -74.193)" fill="#462632"/>
    <ellipse id="Ellipse_174" data-name="Ellipse 174" cx="0.433" cy="0.433" rx="0.433" ry="0.433" transform="translate(16.953 315.911)" fill="#d0cde1"/>
    <ellipse id="Ellipse_175" data-name="Ellipse 175" cx="0.433" cy="0.433" rx="0.433" ry="0.433" transform="translate(16.953 315.911)" fill="#d0cde1"/>
    <ellipse id="Ellipse_166" data-name="Ellipse 166" cx="0.433" cy="0.433" rx="0.433" ry="0.433" transform="translate(18.315 323.066)" fill="#d0cde1"/>
    <ellipse id="Ellipse_167" data-name="Ellipse 167" cx="0.433" cy="0.433" rx="0.433" ry="0.433" transform="translate(18.315 323.066)" fill="#d0cde1"/>
    <ellipse id="Ellipse_176" data-name="Ellipse 176" cx="0.433" cy="0.433" rx="0.433" ry="0.433" transform="translate(9.798 324.854)" fill="#d0cde1"/>
    <ellipse id="Ellipse_177" data-name="Ellipse 177" cx="0.433" cy="0.433" rx="0.433" ry="0.433" transform="translate(9.798 324.854)" fill="#d0cde1"/>
    <ellipse id="Ellipse_170" data-name="Ellipse 170" cx="0.433" cy="0.433" rx="0.433" ry="0.433" transform="translate(14.142 333.031)" fill="#d0cde1"/>
    <ellipse id="Ellipse_171" data-name="Ellipse 171" cx="0.433" cy="0.433" rx="0.433" ry="0.433" transform="translate(14.142 333.031)" fill="#d0cde1"/>
    <ellipse id="Ellipse_182" data-name="Ellipse 182" cx="0.433" cy="0.433" rx="0.433" ry="0.433" transform="translate(4.433 326.473)" fill="#d0cde1"/>
    <ellipse id="Ellipse_183" data-name="Ellipse 183" cx="0.433" cy="0.433" rx="0.433" ry="0.433" transform="translate(4.092 318.126)" fill="#d0cde1"/>
    <ellipse id="Ellipse_178" data-name="Ellipse 178" cx="0.433" cy="0.433" rx="0.433" ry="0.433" transform="translate(22.063 314.804)" fill="#d0cde1"/>
    <ellipse id="Ellipse_179" data-name="Ellipse 179" cx="0.433" cy="0.433" rx="0.433" ry="0.433" transform="translate(22.063 314.804)" fill="#d0cde1"/>
    <ellipse id="Ellipse_180" data-name="Ellipse 180" cx="0.433" cy="0.433" rx="0.433" ry="0.433" transform="translate(8.521 332.605)" fill="#d0cde1"/>
    <ellipse id="Ellipse_181" data-name="Ellipse 181" cx="0.586" cy="0.586" rx="0.586" ry="0.586" transform="translate(6.238 312.692)" fill="#d0cde1"/>
    <ellipse id="Ellipse_172" data-name="Ellipse 172" cx="0.586" cy="0.586" rx="0.586" ry="0.586" transform="translate(12.029 318.824)" fill="#d0cde1"/>
    <ellipse id="Ellipse_173" data-name="Ellipse 173" cx="0.586" cy="0.586" rx="0.586" ry="0.586" transform="translate(12.029 318.824)" fill="#d0cde1"/>
    <ellipse id="Ellipse_160" data-name="Ellipse 160" cx="0.586" cy="0.586" rx="0.586" ry="0.586" transform="translate(19.524 331.174)" fill="#d0cde1"/>
    <ellipse id="Ellipse_161" data-name="Ellipse 161" cx="0.586" cy="0.586" rx="0.586" ry="0.586" transform="translate(19.524 331.174)" fill="#d0cde1"/>
    <ellipse id="Ellipse_184" data-name="Ellipse 184" cx="12.726" cy="1.543" rx="12.726" ry="1.543" transform="translate(1.136 304.716)" fill="#a0616a"/>
    <ellipse id="Ellipse_185" data-name="Ellipse 185" cx="12.726" cy="1.543" rx="12.726" ry="1.543" transform="translate(1.136 304.716)" fill="#a0616a"/>
    <path id="Path_302" data-name="Path 302" d="M474.712,174.874s.392,3.059-3.392,4.086-4.758,3.246-4.758,3.246-4.046,1.11-1.57,3.624c0,0-5.745,3.964-.134,5.6s20.771.528,20.136-2.569c0,0,.789-1.437-1.039-1.725,0,0,2.545-3.47-3.881-5.482,0,0,1.045-1.084-1.751-.776C478.323,180.876,480.066,173.783,474.712,174.874Z" transform="translate(-460.534 115.41)" fill="#d0cde1"/>
    <path id="Path_303" data-name="Path 303" d="M474.712,174.874s.392,3.059-3.392,4.086-4.758,3.246-4.758,3.246-4.046,1.11-1.57,3.624c0,0-5.745,3.964-.134,5.6s20.771.528,20.136-2.569c0,0,.789-1.437-1.039-1.725,0,0,2.545-3.47-3.881-5.482,0,0,1.045-1.084-1.751-.776C478.323,180.876,480.066,173.783,474.712,174.874Z" transform="translate(-460.534 115.41)" fill="#d0cde1"/>
    <path id="Path_318" data-name="Path 318" d="M514.675,208.142l-.01-.246c4.5-.184,6.965-1.587,8.245-2.731a5.67,5.67,0,0,0,1.715-2.457l.239.062a5.784,5.784,0,0,1-1.774,2.565C521.779,206.512,519.256,207.954,514.675,208.142Z" transform="translate(-508.711 89.649)" fill="#a0616a"/>
    <path id="Path_319" data-name="Path 319" d="M514.675,208.142l-.01-.246c4.5-.184,6.965-1.587,8.245-2.731a5.67,5.67,0,0,0,1.715-2.457l.239.062a5.784,5.784,0,0,1-1.774,2.565C521.779,206.512,519.256,207.954,514.675,208.142Z" transform="translate(-508.711 89.649)" fill="#a0616a"/>
    <path id="Path_314" data-name="Path 314" d="M494.357,270.464l-.055-.241c.019,0,2.008-.456,7.493-1.567,3.754-.76,4.654-1.542,4.856-1.94a.324.324,0,0,0,.045-.223l.224-.1a.516.516,0,0,1-.049.438c-.271.535-1.364,1.328-5.027,2.07C496.363,270.008,494.377,270.459,494.357,270.464Z" transform="translate(-489.942 30.947)" fill="#a0616a"/>
    <path id="Path_315" data-name="Path 315" d="M494.357,270.464l-.055-.241c.019,0,2.008-.456,7.493-1.567,3.754-.76,4.654-1.542,4.856-1.94a.324.324,0,0,0,.045-.223l.224-.1a.516.516,0,0,1-.049.438c-.271.535-1.364,1.328-5.027,2.07C496.363,270.008,494.377,270.459,494.357,270.464Z" transform="translate(-489.942 30.947)" fill="#a0616a"/>
    <path id="Path_310" data-name="Path 310" d="M526.179,268.115h-.051v-.247c.085,0,9.027.012,11.779-2.946a2.764,2.764,0,0,0,.787-2.163l.246-.019a3,3,0,0,1-.853,2.35C535.343,268.042,526.987,268.115,526.179,268.115Z" transform="translate(-519.278 34.311)" fill="#a0616a"/>
    <path id="Path_311" data-name="Path 311" d="M526.179,268.115h-.051v-.247c.085,0,9.027.012,11.779-2.946a2.764,2.764,0,0,0,.787-2.163l.246-.019a3,3,0,0,1-.853,2.35C535.343,268.042,526.987,268.115,526.179,268.115Z" transform="translate(-519.278 34.311)" fill="#a0616a"/>
    <path id="Path_306" data-name="Path 306" d="M660.506,335.12h-.014l0-.247c.042,0,4.31.028,5.952-2.731l.212.126C664.992,335.07,660.781,335.12,660.506,335.12Z" transform="translate(-643.132 -29.662)" fill="#a0616a"/>
    <path id="Path_307" data-name="Path 307" d="M660.506,335.12h-.014l0-.247c.042,0,4.31.028,5.952-2.731l.212.126C664.992,335.07,660.781,335.12,660.506,335.12Z" transform="translate(-643.132 -29.662)" fill="#a0616a"/>
    <path id="Path_304" data-name="Path 304" d="M482.334,172.7s.392,3.059-3.392,4.086-4.758,3.246-4.758,3.246-4.046,1.11-1.57,3.624c0,0-5.745,3.964-.134,5.6s20.771.528,20.136-2.569c0,0,.789-1.437-1.039-1.725,0,0,2.545-3.47-3.881-5.482,0,0,1.045-1.084-1.751-.776C485.945,178.7,487.688,171.6,482.334,172.7Z" transform="translate(-467.559 117.418)" fill="#f5f3ff"/>
    <path id="Path_305" data-name="Path 305" d="M482.334,172.7s.392,3.059-3.392,4.086-4.758,3.246-4.758,3.246-4.046,1.11-1.57,3.624c0,0-5.745,3.964-.134,5.6s20.771.528,20.136-2.569c0,0,.789-1.437-1.039-1.725,0,0,2.545-3.47-3.881-5.482,0,0,1.045-1.084-1.751-.776C485.945,178.7,487.688,171.6,482.334,172.7Z" transform="translate(-467.559 117.418)" fill="#f5f3ff"/>
    <path id="Path_320" data-name="Path 320" d="M522.3,205.964l-.01-.246c4.5-.184,6.965-1.587,8.245-2.731a5.672,5.672,0,0,0,1.715-2.457l.239.062a5.786,5.786,0,0,1-1.774,2.565C529.4,204.334,526.878,205.776,522.3,205.964Z" transform="translate(-515.737 91.656)" fill="#a0616a"/>
    <path id="Path_321" data-name="Path 321" d="M522.3,205.964l-.01-.246c4.5-.184,6.965-1.587,8.245-2.731a5.672,5.672,0,0,0,1.715-2.457l.239.062a5.786,5.786,0,0,1-1.774,2.565C529.4,204.334,526.878,205.776,522.3,205.964Z" transform="translate(-515.737 91.656)" fill="#a0616a"/>
    <path id="Path_316" data-name="Path 316" d="M501.979,268.286l-.055-.241c.019,0,2.008-.456,7.493-1.567,3.754-.76,4.654-1.542,4.856-1.94a.325.325,0,0,0,.045-.223l.224-.1a.516.516,0,0,1-.049.438c-.271.535-1.364,1.328-5.027,2.07C503.985,267.83,502,268.281,501.979,268.286Z" transform="translate(-496.968 32.955)" fill="#a0616a"/>
    <path id="Path_317" data-name="Path 317" d="M501.979,268.286l-.055-.241c.019,0,2.008-.456,7.493-1.567,3.754-.76,4.654-1.542,4.856-1.94a.325.325,0,0,0,.045-.223l.224-.1a.516.516,0,0,1-.049.438c-.271.535-1.364,1.328-5.027,2.07C503.985,267.83,502,268.281,501.979,268.286Z" transform="translate(-496.968 32.955)" fill="#a0616a"/>
    <path id="Path_312" data-name="Path 312" d="M533.8,265.938h-.051v-.247c.085,0,9.027.012,11.779-2.946a2.764,2.764,0,0,0,.787-2.163l.246-.019a3,3,0,0,1-.853,2.35C542.965,265.865,534.609,265.938,533.8,265.938Z" transform="translate(-526.304 36.318)" fill="#a0616a"/>
    <path id="Path_313" data-name="Path 313" d="M533.8,265.938h-.051v-.247c.085,0,9.027.012,11.779-2.946a2.764,2.764,0,0,0,.787-2.163l.246-.019a3,3,0,0,1-.853,2.35C542.965,265.865,534.609,265.938,533.8,265.938Z" transform="translate(-526.304 36.318)" fill="#a0616a"/>
    <path id="Path_308" data-name="Path 308" d="M668.128,332.942h-.014l0-.247c.042,0,4.31.028,5.952-2.731l.212.126C672.614,332.892,668.4,332.942,668.128,332.942Z" transform="translate(-650.158 -27.654)" fill="#a0616a"/>
    <path id="Path_309" data-name="Path 309" d="M668.128,332.942h-.014l0-.247c.042,0,4.31.028,5.952-2.731l.212.126C672.614,332.892,668.4,332.942,668.128,332.942Z" transform="translate(-650.158 -27.654)" fill="#a0616a"/>
    <ellipse id="Ellipse_152" data-name="Ellipse 152" cx="8.08" cy="8.08" rx="8.08" ry="8.08" transform="translate(47.873 316.269)" fill="#2f2e41"/>
    <ellipse id="Ellipse_153" data-name="Ellipse 153" cx="8.08" cy="8.08" rx="8.08" ry="8.08" transform="translate(47.873 316.269)" fill="#2f2e41"/>
    <rect id="Rectangle_191" data-name="Rectangle 191" width="2.455" height="4.398" transform="translate(61.49 334.261) rotate(169.739)" fill="#2f2e41"/>
    <rect id="Rectangle_192" data-name="Rectangle 192" width="2.455" height="4.398" transform="translate(61.49 334.261) rotate(169.739)" fill="#2f2e41"/>
    <rect id="Rectangle_193" data-name="Rectangle 193" width="2.455" height="4.398" transform="translate(56.658 335.136) rotate(169.739)" fill="#2f2e41"/>
    <rect id="Rectangle_194" data-name="Rectangle 194" width="2.455" height="4.398" transform="translate(56.658 335.136) rotate(169.739)" fill="#2f2e41"/>
    <ellipse id="Ellipse_154" data-name="Ellipse 154" cx="2.046" cy="0.767" rx="2.046" ry="0.767" transform="matrix(0.763, -0.646, 0.646, 0.763, 52.973, 336.636)" fill="#2f2e41"/>
    <ellipse id="Ellipse_155" data-name="Ellipse 155" cx="2.046" cy="0.767" rx="2.046" ry="0.767" transform="matrix(0.763, -0.646, 0.646, 0.763, 52.973, 336.636)" fill="#2f2e41"/>
    <ellipse id="Ellipse_156" data-name="Ellipse 156" cx="2.046" cy="0.767" rx="2.046" ry="0.767" transform="matrix(0.763, -0.646, 0.646, 0.763, 57.703, 335.78)" fill="#2f2e41"/>
    <ellipse id="Ellipse_157" data-name="Ellipse 157" cx="2.046" cy="0.767" rx="2.046" ry="0.767" transform="matrix(0.763, -0.646, 0.646, 0.763, 57.703, 335.78)" fill="#2f2e41"/>
    <ellipse id="Ellipse_162" data-name="Ellipse 162" cx="2.762" cy="2.762" rx="2.762" ry="2.762" transform="translate(52.625 319.612)" fill="#fff"/>
    <ellipse id="Ellipse_163" data-name="Ellipse 163" cx="2.762" cy="2.762" rx="2.762" ry="2.762" transform="translate(52.625 319.612)" fill="#fff"/>
    <ellipse id="Ellipse_168" data-name="Ellipse 168" cx="0.921" cy="0.921" rx="0.921" ry="0.921" transform="translate(53.332 320.463)" fill="#3f3d56"/>
    <ellipse id="Ellipse_169" data-name="Ellipse 169" cx="0.921" cy="0.921" rx="0.921" ry="0.921" transform="translate(53.332 320.463)" fill="#3f3d56"/>
    <path id="Path_300" data-name="Path 300" d="M491.014,593.22a6.013,6.013,0,0,0-11.957-.486c-.122,2.992,2.174,3.671,5.476,3.805S490.892,596.212,491.014,593.22Z" transform="translate(-428.686 -277.661)" fill="#ff9399"/>
    <path id="Path_301" data-name="Path 301" d="M491.014,593.22a6.013,6.013,0,0,0-11.957-.486c-.122,2.992,2.174,3.671,5.476,3.805S490.892,596.212,491.014,593.22Z" transform="translate(-428.686 -277.661)" fill="#ff9399"/>
    <ellipse id="Ellipse_164" data-name="Ellipse 164" cx="1.268" cy="4.04" rx="1.268" ry="4.04" transform="matrix(0.223, -0.975, 0.975, 0.223, 44.27, 323.211)" fill="#2f2e41"/>
    <ellipse id="Ellipse_165" data-name="Ellipse 165" cx="1.268" cy="4.04" rx="1.268" ry="4.04" transform="matrix(0.223, -0.975, 0.975, 0.223, 44.27, 323.211)" fill="#2f2e41"/>
    <ellipse id="Ellipse_158" data-name="Ellipse 158" cx="1.268" cy="4.04" rx="1.268" ry="4.04" transform="matrix(0.223, -0.975, 0.975, 0.223, 60.132, 325.849)" fill="#2f2e41"/>
    <ellipse id="Ellipse_159" data-name="Ellipse 159" cx="1.268" cy="4.04" rx="1.268" ry="4.04" transform="matrix(0.223, -0.975, 0.975, 0.223, 60.132, 325.849)" fill="#2f2e41"/>
    <path id="Path_298" data-name="Path 298" d="M504.316,675.24a1.841,1.841,0,0,1-3.623.656c-.181-1,.592-1.355,1.593-1.536S504.135,674.239,504.316,675.24Z" transform="translate(-446.144 -347.706)" fill="#fff"/>
    <path id="Path_299" data-name="Path 299" d="M504.316,675.24a1.841,1.841,0,0,1-3.623.656c-.181-1,.592-1.355,1.593-1.536S504.135,674.239,504.316,675.24Z" transform="translate(-446.144 -347.706)" fill="#fff"/>
  </g>
</svg>
